<svg width="24" height="24" viewBox="0 0 24 24" fill="none" xmlns="http://www.w3.org/2000/svg">
<path d="M19.8301 3.17993C20.7539 3.17997 21.5 3.92606 21.5 4.84985V16.7395C21.5 17.4548 20.9005 18.1345 20.1787 18.2239H20.1758L19.8662 18.2639H19.8633C18.1691 18.4912 15.8164 19.1859 13.9277 19.9778C13.6162 20.107 13.2501 19.8732 13.25 19.51V5.59985L13.2549 5.53345C13.2767 5.37968 13.3729 5.23352 13.5273 5.14868L13.5283 5.14966C15.3007 4.1909 17.992 3.33754 19.7939 3.17993H19.8301Z" fill="#40878E" stroke="#40878E"/>
<path d="M4.16016 3.17993H4.20605C6.00739 3.33743 8.69821 4.18929 10.4707 5.14771V5.14868C10.6424 5.24235 10.7402 5.40556 10.7402 5.59985V19.51C10.7402 19.8733 10.3731 20.1072 10.0615 19.9778C8.17302 19.186 5.8209 18.4912 4.12695 18.2639H4.12402L3.81445 18.2239H3.81152C3.08978 18.1345 2.49023 17.4548 2.49023 16.7395V4.84985C2.49028 3.92606 3.23636 3.17997 4.16016 3.17993ZM5 10.2395C4.31411 10.2396 3.75023 10.8036 3.75 11.4895C3.75 12.1899 4.31832 12.7394 5 12.7395H8C8.68179 12.7395 9.25 12.19 9.25 11.4895C9.24976 10.8036 8.686 10.2395 8 10.2395H5ZM5 7.2395C4.31411 7.23963 3.75023 7.80363 3.75 8.4895C3.75 9.1899 4.31832 9.73938 5 9.7395H7.25C7.93179 9.7395 8.5 9.18998 8.5 8.4895C8.49976 7.80355 7.936 7.2395 7.25 7.2395H5Z" fill="#40878E" stroke="#40878E"/>
</svg>
