<svg width="20" height="20" viewBox="0 0 20 20" fill="none" xmlns="http://www.w3.org/2000/svg">
<g clip-path="url(#clip0_4702_37732)">
<path d="M16.6668 17.4959V10.8304C16.6668 10.3885 16.4913 9.96463 16.1788 9.65213C15.8663 9.33963 15.4424 9.16406 15.0005 9.16406H5.0023C4.56035 9.16406 4.13651 9.33963 3.824 9.65213C3.5115 9.96463 3.33594 10.3885 3.33594 10.8304V17.4959" stroke="#212121" stroke-width="1.66636" stroke-linecap="round" stroke-linejoin="round"/>
<path d="M3.33594 13.3332C3.33594 13.3332 3.75253 12.5 5.0023 12.5C6.25207 12.5 7.08525 14.1664 8.33502 14.1664C9.58479 14.1664 10.418 12.5 11.6677 12.5C12.9175 12.5 13.7507 14.1664 15.0005 14.1664C16.2502 14.1664 16.6668 13.3332 16.6668 13.3332" stroke="#212121" stroke-width="1.66636" stroke-linecap="round" stroke-linejoin="round"/>
<path d="M1.66406 17.5H18.3277" stroke="#212121" stroke-width="1.66636" stroke-linecap="round" stroke-linejoin="round"/>
<path d="M5.83594 6.66406V9.1636" stroke="#212121" stroke-width="1.66636" stroke-linecap="round" stroke-linejoin="round"/>
<path d="M10 6.66406V9.1636" stroke="#212121" stroke-width="1.66636" stroke-linecap="round" stroke-linejoin="round"/>
<path d="M14.1641 6.66406V9.1636" stroke="#212121" stroke-width="1.66636" stroke-linecap="round" stroke-linejoin="round"/>
<path d="M5.83594 3.33594H5.84427" stroke="#212121" stroke-width="1.66636" stroke-linecap="round" stroke-linejoin="round"/>
<path d="M10 3.33594H10.0083" stroke="#212121" stroke-width="1.66636" stroke-linecap="round" stroke-linejoin="round"/>
<path d="M14.1641 3.33594H14.1724" stroke="#212121" stroke-width="1.66636" stroke-linecap="round" stroke-linejoin="round"/>
</g>
<defs>
<clipPath id="clip0_4702_37732">
<rect width="19.9963" height="19.9963" fill="white"/>
</clipPath>
</defs>
</svg>
