<svg width="799" height="445" viewBox="0 0 799 445" fill="none" xmlns="http://www.w3.org/2000/svg">
<g clip-path="url(#clip0_4987_19491)">
<rect width="799" height="445" fill="white"/>
<path d="M229 65.6436C165.161 2.74545 0 35.5516 0 35.5516V445H505C505 445 498.529 432.843 494 425.268C438.953 333.186 328.77 349.649 275.5 256.555C237.292 189.783 283.993 119.826 229 65.6436Z" fill="#D6E5F2" fill-opacity="0.5"/>
<path d="M570 380.264C633.839 443.313 799 410.428 799 410.428V0H294C294 0 300.471 12.1863 305 19.7797C360.047 112.081 470.23 95.5796 523.5 188.896C561.708 255.827 515.007 325.952 570 380.264Z" fill="#EFECE4" fill-opacity="0.5"/>
</g>
<defs>
<clipPath id="clip0_4987_19491">
<rect width="799" height="445" fill="white"/>
</clipPath>
</defs>
</svg>
