<svg width="24" height="24" viewBox="0 0 24 24" fill="none" xmlns="http://www.w3.org/2000/svg">
<path d="M2 21H22C22.1339 21 22.25 21.1161 22.25 21.25C22.25 21.3839 22.1339 21.5 22 21.5H2C1.86614 21.5 1.75 21.3839 1.75 21.25C1.75 21.1161 1.86614 21 2 21Z" fill="#40878E" stroke="#40878E"/>
<path d="M11.5498 2.5H12.4502C13.0034 2.50004 13.293 2.67738 13.4609 2.89355C13.6466 3.1329 13.75 3.50568 13.75 4V21.5H10.25V4C10.25 3.50568 10.3534 3.1329 10.5391 2.89355C10.707 2.67738 10.9966 2.50004 11.5498 2.5Z" fill="#40878E" stroke="#40878E"/>
<path d="M4.59961 8.5H5.40039C5.8556 8.50009 6.09246 8.65979 6.23828 8.87109C6.40587 9.11409 6.5 9.4964 6.5 10V21.5H3.5V10C3.5 9.4964 3.59413 9.11409 3.76172 8.87109C3.90754 8.65979 4.1444 8.50009 4.59961 8.5Z" fill="#40878E" stroke="#40878E"/>
<path d="M18.5996 13.5H19.4004C19.8556 13.5001 20.0925 13.6598 20.2383 13.8711C20.4059 14.1141 20.5 14.4964 20.5 15V21.5H17.5V15C17.5 14.4964 17.5941 14.1141 17.7617 13.8711C17.9075 13.6598 18.1444 13.5001 18.5996 13.5Z" fill="#40878E" stroke="#40878E"/>
</svg>
