<svg width="12" height="12" viewBox="0 0 12 12" fill="none" xmlns="http://www.w3.org/2000/svg">
<g clip-path="url(#clip0_3273_35324)">
<path d="M7.7916 2.98288C7.68228 2.87366 7.53699 2.81342 7.38245 2.81342C7.22791 2.81342 7.08261 2.87366 6.97339 2.98288C6.86407 3.09219 6.80383 3.23749 6.80383 3.39203C6.80383 3.54657 6.86407 3.69186 6.9733 3.80109L7.95895 4.78674C8.06818 4.89597 8.21356 4.95621 8.3681 4.95621C8.52264 4.95621 8.66785 4.89597 8.77716 4.78674L10.8831 2.68085C10.9924 2.57153 11.0525 2.42624 11.0525 2.27179C11.0525 2.11725 10.9924 1.97195 10.8831 1.86264C10.7738 1.75333 10.6284 1.69318 10.4739 1.69318C10.3194 1.69318 10.1741 1.75333 10.0648 1.86264L9.83267 2.09482C9.66064 1.96353 9.47186 1.85825 9.27182 1.78207V1.51886C9.27182 1.1998 9.01227 0.940247 8.6933 0.940247H6.87909V0.73938C6.87909 0.331696 6.54739 0 6.13971 0H4.11649C3.7088 0 3.37711 0.331696 3.37711 0.73938V1.5748C3.37711 1.8013 3.5614 1.9856 3.7879 1.9856H6.46829C6.69479 1.9856 6.87909 1.8013 6.87909 1.5748V1.29236H8.69321C8.81808 1.29236 8.91971 1.39398 8.91971 1.51886V1.681C8.77478 1.6517 8.62646 1.63614 8.47641 1.63614C7.24329 1.63614 6.24005 2.63937 6.24005 3.8725C6.24005 5.10562 7.24329 6.10886 8.47641 6.10886C8.62683 6.10886 8.77515 6.09375 8.91971 6.06473V11.4215C8.91971 11.5464 8.81808 11.6479 8.69321 11.6479H1.5629C1.43802 11.6479 1.33649 11.5464 1.33649 11.4215V1.51886C1.33649 1.39398 1.43802 1.29236 1.5629 1.29236H2.73322C2.83044 1.29236 2.90927 1.21353 2.90927 1.1163C2.90927 1.01907 2.83044 0.940247 2.73322 0.940247H1.5629C1.24393 0.940247 0.984375 1.1998 0.984375 1.51886V11.4215C0.984375 11.7404 1.24393 12 1.5629 12H8.6933C9.01227 12 9.27182 11.7404 9.27182 11.4215V5.96292C9.55215 5.85626 9.8107 5.69348 10.0319 5.47934C10.4501 5.0744 10.6915 4.53149 10.7115 3.95059C10.7148 3.85345 10.6388 3.77197 10.5416 3.76859C10.4451 3.76538 10.3629 3.84128 10.3596 3.93851C10.3315 4.75616 9.79376 5.43127 9.05539 5.66684C9.04523 5.66922 9.03534 5.67233 9.026 5.67645C8.85223 5.72873 8.66776 5.75674 8.47641 5.75674C7.43747 5.75674 6.59216 4.91144 6.59216 3.8725C6.59216 2.83356 7.43747 1.98825 8.47641 1.98825C8.87549 1.98825 9.2612 2.11441 9.58118 2.34631L8.3681 3.55948L7.7916 2.98288ZM6.52698 1.5748C6.52698 1.60721 6.5007 1.63348 6.46829 1.63348H3.7879C3.75549 1.63348 3.72922 1.60721 3.72922 1.5748V0.73938C3.72922 0.525787 3.90289 0.352112 4.11649 0.352112H6.13971C6.35321 0.352112 6.52698 0.525787 6.52698 0.73938V1.5748ZM10.3139 2.11166C10.3566 2.06882 10.4135 2.04529 10.4739 2.04529C10.5344 2.04529 10.5913 2.06891 10.6341 2.11166C10.7224 2.19992 10.7224 2.34366 10.6341 2.43192L8.52814 4.53781C8.48538 4.58057 8.42853 4.60419 8.36801 4.60419C8.3075 4.60419 8.25064 4.58057 8.20789 4.53781L7.22223 3.55215C7.17947 3.5094 7.15594 3.45255 7.15594 3.39203C7.15594 3.33151 7.17947 3.27466 7.22232 3.2319C7.26508 3.18915 7.32193 3.16553 7.38245 3.16553C7.44287 3.16553 7.49982 3.18915 7.54257 3.2319L8.24359 3.93292C8.31235 4.00168 8.42377 4.00168 8.49252 3.93292L10.3139 2.11166Z" fill="white"/>
<path d="M5.77573 4.41895H3.63055C3.53333 4.41895 3.45459 4.49777 3.45459 4.595C3.45459 4.69214 3.53333 4.77097 3.63055 4.77097H5.77573C5.87296 4.77097 5.95178 4.69214 5.95178 4.595C5.95178 4.49777 5.87296 4.41895 5.77573 4.41895Z" fill="white"/>
<path d="M3.29474 2.60156H2.11014C2.01291 2.60156 1.93408 2.68039 1.93408 2.77762C1.93408 2.87485 2.01291 2.95367 2.11014 2.95367H3.29474C3.39197 2.95367 3.47079 2.87485 3.47079 2.77762C3.47079 2.68039 3.39197 2.60156 3.29474 2.60156Z" fill="white"/>
<path d="M3.63055 5.58737H5.77573C5.87296 5.58737 5.95178 5.50854 5.95178 5.41132C5.95178 5.31418 5.87296 5.23535 5.77573 5.23535H3.63055C3.53333 5.23535 3.45459 5.31418 3.45459 5.41132C3.45459 5.50854 3.53333 5.58737 3.63055 5.58737Z" fill="white"/>
<path d="M6.51675 6.55469H3.63055C3.53333 6.55469 3.45459 6.63351 3.45459 6.73074C3.45459 6.82797 3.53333 6.9068 3.63055 6.9068H6.51675C6.61398 6.9068 6.69281 6.82797 6.69281 6.73074C6.69281 6.63351 6.61398 6.55469 6.51675 6.55469Z" fill="white"/>
<path d="M3.63055 7.72321H5.0737C5.17093 7.72321 5.24966 7.64438 5.24966 7.54715C5.24966 7.44992 5.17093 7.37109 5.0737 7.37109H3.63055C3.53333 7.37109 3.45459 7.44992 3.45459 7.54715C3.45459 7.64438 3.53333 7.72321 3.63055 7.72321Z" fill="white"/>
<path d="M3.63055 9.04352H5.77573C5.87296 9.04352 5.95178 8.96469 5.95178 8.86746C5.95178 8.77023 5.87296 8.69141 5.77573 8.69141H3.63055C3.53333 8.69141 3.45459 8.77023 3.45459 8.86746C3.45459 8.96469 3.53333 9.04352 3.63055 9.04352Z" fill="white"/>
<path d="M3.63055 9.86081H6.51675C6.61398 9.86081 6.69281 9.78198 6.69281 9.68475C6.69281 9.58762 6.61398 9.50879 6.51675 9.50879H3.63055C3.53333 9.50879 3.45459 9.58762 3.45459 9.68475C3.45459 9.78198 3.53333 9.86081 3.63055 9.86081Z" fill="white"/>
<path d="M2.48355 4.2666C2.09143 4.2666 1.77246 4.58557 1.77246 4.97769C1.77246 5.36981 2.09143 5.68878 2.48355 5.68878C2.87567 5.68878 3.19464 5.36981 3.19464 4.97769C3.19464 4.58557 2.87567 4.2666 2.48355 4.2666ZM2.48355 5.33667C2.28561 5.33667 2.12457 5.17563 2.12457 4.97769C2.12457 4.77975 2.28561 4.61871 2.48355 4.61871C2.68149 4.61871 2.84253 4.77975 2.84253 4.97769C2.84253 5.17563 2.68149 5.33667 2.48355 5.33667Z" fill="white"/>
<path d="M2.48355 6.42773C2.09143 6.42773 1.77246 6.7468 1.77246 7.13882C1.77246 7.53094 2.09143 7.84991 2.48355 7.84991C2.87567 7.84991 3.19464 7.53094 3.19464 7.13882C3.19464 6.7468 2.87567 6.42773 2.48355 6.42773ZM2.48355 7.49789C2.28561 7.49789 2.12457 7.33685 2.12457 7.13892C2.12457 6.94089 2.28561 6.77985 2.48355 6.77985C2.68149 6.77985 2.84253 6.94089 2.84253 7.13892C2.84253 7.33685 2.68149 7.49789 2.48355 7.49789Z" fill="white"/>
<path d="M2.48355 8.56445C2.09143 8.56445 1.77246 8.88342 1.77246 9.27554C1.77246 9.66766 2.09143 9.98663 2.48355 9.98663C2.87567 9.98663 3.19464 9.66766 3.19464 9.27554C3.19464 8.88342 2.87567 8.56445 2.48355 8.56445ZM2.48355 9.63452C2.28561 9.63452 2.12457 9.47348 2.12457 9.27554C2.12457 9.07761 2.28561 8.91656 2.48355 8.91656C2.68149 8.91656 2.84253 9.07761 2.84253 9.27554C2.84253 9.47348 2.68149 9.63452 2.48355 9.63452Z" fill="white"/>
</g>
<defs>
<clipPath id="clip0_3273_35324">
<rect width="12" height="12" fill="white"/>
</clipPath>
</defs>
</svg>
