<svg width="20" height="20" viewBox="0 0 20 20" fill="none" xmlns="http://www.w3.org/2000/svg">
<g clip-path="url(#clip0_4702_37751)">
<path d="M4.83015 9.41797L1.66406 18.333L10.5791 15.1752" stroke="#212121" stroke-width="1.66636" stroke-linecap="round" stroke-linejoin="round"/>
<path d="M3.33594 2.5H3.34427" stroke="#212121" stroke-width="1.66636" stroke-linecap="round" stroke-linejoin="round"/>
<path d="M18.3281 6.66797H18.3365" stroke="#212121" stroke-width="1.66636" stroke-linecap="round" stroke-linejoin="round"/>
<path d="M12.4922 1.66797H12.5005" stroke="#212121" stroke-width="1.66636" stroke-linecap="round" stroke-linejoin="round"/>
<path d="M18.3281 16.6641H18.3365" stroke="#212121" stroke-width="1.66636" stroke-linecap="round" stroke-linejoin="round"/>
<path d="M18.3295 1.66797L16.4632 2.29285C15.9319 2.46981 15.4786 2.82579 15.1808 3.29994C14.8829 3.77409 14.759 4.33697 14.8301 4.89238C14.9135 5.60891 14.3552 6.25046 13.622 6.25046H13.3054C12.5889 6.25046 11.9723 6.75037 11.839 7.45024L11.6641 8.33341" stroke="#212121" stroke-width="1.66636" stroke-linecap="round" stroke-linejoin="round"/>
<path d="M18.33 10.833L17.6468 10.5581C16.9302 10.2748 16.1304 10.7247 15.9971 11.4829C15.9054 12.0662 15.3972 12.4994 14.8056 12.4994H14.1641" stroke="#212121" stroke-width="1.66636" stroke-linecap="round" stroke-linejoin="round"/>
<path d="M9.16636 1.66797L9.44131 2.35118C9.72459 3.06771 9.27468 3.86757 8.51648 4.00087C7.93325 4.08419 7.5 4.60076 7.5 5.19232V5.83387" stroke="#212121" stroke-width="1.66636" stroke-linecap="round" stroke-linejoin="round"/>
<path d="M9.16563 10.8341C10.7737 12.4421 11.5235 14.3084 10.832 15C10.1404 15.6915 8.27412 14.9416 6.66608 13.3336C5.05805 11.7256 4.30818 9.85923 4.99972 9.16769C5.69126 8.47615 7.55759 9.22601 9.16563 10.8341Z" stroke="#212121" stroke-width="1.66636" stroke-linecap="round" stroke-linejoin="round"/>
</g>
<defs>
<clipPath id="clip0_4702_37751">
<rect width="19.9963" height="19.9963" fill="white"/>
</clipPath>
</defs>
</svg>
