<svg width="22" height="22" viewBox="0 0 22 22" fill="none" xmlns="http://www.w3.org/2000/svg">
<path d="M16.4818 9.89084V13.5575C16.4818 13.7958 16.4727 14.025 16.4452 14.245C16.2343 16.72 14.7768 17.9483 12.091 17.9483H11.7243C11.4952 17.9483 11.2752 18.0583 11.1377 18.2417L10.0377 19.7083C9.55184 20.3592 8.76349 20.3592 8.27766 19.7083L7.17765 18.2417C7.05848 18.0858 6.79266 17.9483 6.591 17.9483H6.22434C3.30017 17.9483 1.8335 17.2242 1.8335 13.5575V9.89084C1.8335 7.20501 3.071 5.74751 5.53684 5.53667C5.75684 5.50917 5.986 5.5 6.22434 5.5H12.091C15.0152 5.5 16.4818 6.96667 16.4818 9.89084Z" stroke="#141414" stroke-width="1.5" stroke-miterlimit="10" stroke-linecap="round" stroke-linejoin="round"/>
<path d="M20.1483 6.22385V9.89052C20.1483 12.5855 18.9108 14.0338 16.4449 14.2447C16.4724 14.0247 16.4816 13.7955 16.4816 13.5572V9.89052C16.4816 6.96635 15.0149 5.49967 12.0908 5.49967H6.22412C5.98579 5.49967 5.75662 5.50885 5.53662 5.53635C5.74745 3.07052 7.20495 1.83301 9.89079 1.83301H15.7574C18.6816 1.83301 20.1483 3.29968 20.1483 6.22385Z" stroke="#141414" stroke-width="1.5" stroke-miterlimit="10" stroke-linecap="round" stroke-linejoin="round"/>
<path d="M12.3707 12.1458H12.379" stroke="#141414" stroke-width="2" stroke-linecap="round" stroke-linejoin="round"/>
<path d="M9.1627 12.1458H9.17095" stroke="#141414" stroke-width="2" stroke-linecap="round" stroke-linejoin="round"/>
<path d="M5.95421 12.1458H5.96246" stroke="#141414" stroke-width="2" stroke-linecap="round" stroke-linejoin="round"/>
</svg>
