<svg width="12" height="12" viewBox="0 0 12 12" fill="none" xmlns="http://www.w3.org/2000/svg">
<path d="M2.86865 8.26738C2.91838 8.26738 2.96607 8.24763 3.00123 8.21247C3.0364 8.1773 3.05615 8.12961 3.05615 8.07988V7.55957C3.05615 7.50984 3.0364 7.46215 3.00123 7.42699C2.96607 7.39182 2.91838 7.37207 2.86865 7.37207C2.81892 7.37207 2.77123 7.39182 2.73607 7.42699C2.70091 7.46215 2.68115 7.50984 2.68115 7.55957V8.07988C2.68115 8.12961 2.70091 8.1773 2.73607 8.21247C2.77123 8.24763 2.81892 8.26738 2.86865 8.26738Z" fill="white"/>
<path d="M9.31884 10.9029V10.4543H9.76884C9.96007 10.454 10.1434 10.3779 10.2786 10.2427C10.4138 10.1075 10.4899 9.92417 10.4902 9.73294V1.74375C10.4898 1.55262 10.4136 1.36944 10.2784 1.23434C10.1432 1.09925 9.95997 1.02325 9.76884 1.023H8.18559L7.43128 0.416437C7.39796 0.389622 7.35648 0.375001 7.31371 0.375H5.8574C5.81464 0.375001 5.77315 0.389622 5.73984 0.416437L4.98553 1.023H3.40284C3.21166 1.02315 3.02835 1.09911 2.89309 1.23422C2.75784 1.36933 2.68169 1.55257 2.68134 1.74375V2.19375H2.23134C2.03991 2.194 1.8564 2.27015 1.72104 2.40551C1.58568 2.54087 1.50953 2.72439 1.50928 2.91581V10.9033C1.50962 11.0947 1.58582 11.2781 1.72117 11.4134C1.85652 11.5486 2.03998 11.6248 2.23134 11.625H8.59921C8.79034 11.6245 8.97346 11.5482 9.10838 11.4128C9.2433 11.2774 9.31899 11.0941 9.31884 10.9029ZM5.23771 1.30144L5.9234 0.75H7.24771L7.93359 1.30144V2.05706C7.9333 2.0766 7.9254 2.09525 7.91156 2.10904C7.89773 2.12284 7.87906 2.1307 7.85953 2.13094H5.31159C5.292 2.13094 5.27321 2.12315 5.25935 2.1093C5.2455 2.09545 5.23771 2.07666 5.23771 2.05706V1.30144ZM1.88428 10.9029V2.91544C1.88453 2.8235 1.92118 2.73541 1.98623 2.67043C2.05127 2.60546 2.1394 2.5689 2.23134 2.56875H2.68134V6.97744C2.68134 7.02717 2.70109 7.07486 2.73626 7.11002C2.77142 7.14518 2.81911 7.16494 2.86884 7.16494C2.91857 7.16494 2.96626 7.14518 3.00142 7.11002C3.03659 7.07486 3.05634 7.02717 3.05634 6.97744V2.38762C3.05634 2.38538 3.05765 2.3835 3.05765 2.38125C3.05765 2.379 3.05634 2.37713 3.05634 2.37488V1.74375C3.05639 1.65192 3.09289 1.56386 3.15783 1.49892C3.22276 1.43399 3.31082 1.39749 3.40265 1.39744H4.86253V2.0565C4.86282 2.17546 4.91021 2.28946 4.99433 2.37357C5.07844 2.45769 5.19244 2.50508 5.3114 2.50538H7.85953C7.97852 2.50513 8.09257 2.45776 8.17672 2.37364C8.26088 2.28952 8.30829 2.17549 8.30859 2.0565V1.398H9.76884C9.86069 1.3979 9.94883 1.43425 10.0139 1.49908C10.079 1.5639 10.1157 1.6519 10.1159 1.74375V9.73294C10.1158 9.82487 10.0791 9.91298 10.014 9.97792C9.94896 10.0429 9.86077 10.0793 9.76884 10.0793H3.40284C3.31099 10.0792 3.22291 10.0427 3.15795 9.97777C3.09298 9.91284 3.05644 9.82479 3.05634 9.73294V8.68481C3.05634 8.63508 3.03659 8.58739 3.00142 8.55223C2.96626 8.51707 2.91857 8.49731 2.86884 8.49731C2.81911 8.49731 2.77142 8.51707 2.73626 8.55223C2.70109 8.58739 2.68134 8.63508 2.68134 8.68481V9.73294C2.68159 9.92417 2.75766 10.1075 2.89288 10.2427C3.0281 10.3779 3.21142 10.454 3.40265 10.4543H8.94384V10.9029C8.94409 10.9946 8.90794 11.0827 8.84332 11.1478C8.77871 11.2128 8.69092 11.2496 8.59921 11.25H2.23134C2.13934 11.2499 2.05115 11.2132 1.98609 11.1482C1.92104 11.0831 1.88443 10.9949 1.88428 10.9029Z" fill="white"/>
<path d="M4.62449 5.07385C4.65959 5.10808 4.70671 5.12719 4.75574 5.1271H4.76155C4.78673 5.12632 4.8115 5.12047 4.83437 5.10991C4.85725 5.09934 4.87775 5.08427 4.89467 5.0656L5.76017 4.11141C5.77672 4.09317 5.78951 4.07184 5.79782 4.04865C5.80612 4.02546 5.80978 4.00087 5.80857 3.97627C5.80737 3.95166 5.80134 3.92754 5.79081 3.90527C5.78029 3.883 5.76548 3.86302 5.74724 3.84648C5.72899 3.82993 5.70766 3.81714 5.68448 3.80883C5.66129 3.80053 5.63669 3.79687 5.61209 3.79807C5.58749 3.79928 5.56336 3.80531 5.54109 3.81584C5.51882 3.82636 5.49884 3.84117 5.4823 3.85941L4.74767 4.6696L4.41017 4.3396C4.39257 4.32237 4.37174 4.30877 4.34888 4.29958C4.32602 4.29039 4.30157 4.2858 4.27693 4.28606C4.2523 4.28632 4.22795 4.29143 4.20529 4.3011C4.18263 4.31077 4.1621 4.32481 4.14486 4.34241C4.12762 4.36002 4.11403 4.38085 4.10484 4.40371C4.09565 4.42657 4.09106 4.45102 4.09132 4.47565C4.09158 4.50029 4.09669 4.52463 4.10636 4.54729C4.11603 4.56996 4.13007 4.59049 4.14767 4.60773L4.62449 5.07385Z" fill="white"/>
<path d="M6.521 4.79492H8.89418C8.94391 4.79492 8.9916 4.77517 9.02677 4.74C9.06193 4.70484 9.08168 4.65715 9.08168 4.60742C9.08168 4.55769 9.06193 4.51 9.02677 4.47484C8.9916 4.43968 8.94391 4.41992 8.89418 4.41992H6.521C6.47127 4.41992 6.42358 4.43968 6.38841 4.47484C6.35325 4.51 6.3335 4.55769 6.3335 4.60742C6.3335 4.65715 6.35325 4.70484 6.38841 4.74C6.42358 4.77517 6.47127 4.79492 6.521 4.79492Z" fill="white"/>
<path d="M4.62455 6.88323C4.65963 6.91753 4.70675 6.93671 4.7558 6.93667H4.76162C4.78679 6.93592 4.81154 6.9301 4.83442 6.91956C4.85729 6.90903 4.8778 6.894 4.89474 6.87536L5.76024 5.92098C5.79366 5.88414 5.81107 5.83552 5.80864 5.78584C5.80622 5.73615 5.78415 5.68946 5.7473 5.65605C5.71045 5.62263 5.66184 5.60522 5.61215 5.60765C5.56247 5.61007 5.51578 5.63214 5.48237 5.66898L4.74774 6.47917L4.41024 6.14917C4.37466 6.11436 4.32671 6.09511 4.27694 6.09566C4.22716 6.0962 4.17964 6.1165 4.14483 6.15208C4.11002 6.18766 4.09077 6.23561 4.09132 6.28538C4.09186 6.33516 4.11216 6.38267 4.14774 6.41748L4.62455 6.88323Z" fill="white"/>
<path d="M6.521 6.60352H8.89418C8.94391 6.60352 8.9916 6.58376 9.02677 6.5486C9.06193 6.51344 9.08168 6.46574 9.08168 6.41602C9.08168 6.36629 9.06193 6.3186 9.02677 6.28343C8.9916 6.24827 8.94391 6.22852 8.89418 6.22852H6.521C6.47127 6.22852 6.42358 6.24827 6.38841 6.28343C6.35325 6.3186 6.3335 6.36629 6.3335 6.41602C6.3335 6.46574 6.35325 6.51344 6.38841 6.5486C6.42358 6.58376 6.47127 6.60352 6.521 6.60352Z" fill="white"/>
<path d="M4.62444 8.69104C4.65951 8.72534 4.70663 8.74452 4.75569 8.74448H4.7615C4.78669 8.7437 4.81145 8.73785 4.83433 8.72728C4.8572 8.71671 4.87771 8.70165 4.89463 8.68298L5.76013 7.7286C5.79354 7.69175 5.81095 7.64314 5.80853 7.59345C5.8061 7.54377 5.78404 7.49708 5.74719 7.46366C5.71034 7.43025 5.66173 7.41284 5.61204 7.41526C5.56236 7.41769 5.51567 7.43975 5.48225 7.4766L4.74725 8.28716L4.40975 7.95698C4.37417 7.92217 4.32622 7.90292 4.27645 7.90346C4.22667 7.90401 4.17916 7.9243 4.14435 7.95988C4.10954 7.99546 4.09029 8.04341 4.09083 8.09319C4.09138 8.14296 4.11167 8.19048 4.14725 8.22529L4.62444 8.69104Z" fill="white"/>
<path d="M6.521 8.41211H8.89418C8.94391 8.41211 8.9916 8.39236 9.02677 8.35719C9.06193 8.32203 9.08168 8.27434 9.08168 8.22461C9.08168 8.17488 9.06193 8.12719 9.02677 8.09203C8.9916 8.05686 8.94391 8.03711 8.89418 8.03711H6.521C6.47127 8.03711 6.42358 8.05686 6.38841 8.09203C6.35325 8.12719 6.3335 8.17488 6.3335 8.22461C6.3335 8.27434 6.35325 8.32203 6.38841 8.35719C6.42358 8.39236 6.47127 8.41211 6.521 8.41211Z" fill="white"/>
</svg>
