<svg width="24" height="24" viewBox="0 0 24 24" fill="none" xmlns="http://www.w3.org/2000/svg">
<path d="M6.41992 2.5H8.74023C9.50222 2.50003 9.94005 2.62439 10.25 2.80566C10.5678 2.99154 10.8071 3.26717 11.1299 3.69922L11.1309 3.70117L12.5303 5.56055L12.5312 5.56152C12.6606 5.73254 12.8193 5.95857 13.0615 6.08594C13.3094 6.21619 13.5911 6.21973 13.8604 6.21973H16.6504C18.2851 6.21986 19.7319 7.03241 20.6074 8.2793C20.6818 8.38526 20.6742 8.47941 20.6201 8.56445C20.5581 8.66171 20.4263 8.75 20.248 8.75H3C2.72386 8.75 2.5 8.52614 2.5 8.25V6.41992C2.50004 4.25613 4.25613 2.50004 6.41992 2.5Z" fill="#40878E" stroke="#40878E"/>
<path d="M20.9834 10.7498C21.5343 10.7498 21.9815 11.1954 21.9834 11.7464L22 16.65C22 19.6 19.6 22 16.65 22H7.35C4.4 22 2 19.6 2 16.65V11.75C2 11.1977 2.44771 10.75 2.99999 10.75L20.9834 10.7498Z" fill="#40878E"/>
</svg>
