<svg width="21" height="20" viewBox="0 0 21 20" fill="none" xmlns="http://www.w3.org/2000/svg">
<path d="M7.10645 1.3125C8.35962 0.341773 10.3445 0.233615 11.7334 1.02637L12.0029 1.19727L17.7637 5.22754C18.2327 5.556 18.6765 6.09467 19.0039 6.72168C19.3313 7.34886 19.5195 8.02194 19.5195 8.59766V15.3779C19.5194 17.6516 17.674 19.4978 15.4004 19.498H4.62012C2.34781 19.498 0.500229 17.6432 0.5 15.3682V8.46777L0.507812 8.2627C0.544501 7.77406 0.707833 7.2184 0.96875 6.68848C1.26679 6.0832 1.67125 5.55428 2.09766 5.22168L7.10645 1.3125ZM10.0098 11.748C9.32373 11.7482 8.75977 12.312 8.75977 12.998V15.998C8.75993 16.684 9.32383 17.2479 10.0098 17.248C10.6958 17.248 11.2596 16.6841 11.2598 15.998V12.998C11.2598 12.3119 10.6959 11.748 10.0098 11.748Z" fill="#40878E" stroke="#40878E"/>
</svg>
