
<svg width="24" height="24" viewBox="0 0 24 24" fill="none" xmlns="http://www.w3.org/2000/svg">
<path d="M6.79004 6.41699H13.1904C14.7205 6.41706 15.7932 6.80017 16.4863 7.49316C17.1795 8.18638 17.5635 9.2596 17.5635 10.79V14.79C17.5635 15.0402 17.5535 15.2715 17.5264 15.4883L17.5254 15.4961L17.5244 15.5049C17.4158 16.7792 16.9932 17.6731 16.3076 18.2549C15.6164 18.8413 14.5967 19.163 13.1904 19.1631H12.79C12.4089 19.1631 12.0451 19.3455 11.8164 19.6504L10.6162 21.25V21.251C10.4174 21.5172 10.1865 21.6161 9.99023 21.6162C9.79394 21.6162 9.5631 21.5172 9.36426 21.251L9.36328 21.25L8.16309 19.6504L8.16113 19.6465L8.06738 19.542C7.96684 19.443 7.84726 19.3632 7.73145 19.3047C7.57743 19.2269 7.38508 19.1632 7.19043 19.1631H6.79004C5.20188 19.1631 4.14629 18.9593 3.47266 18.3711C2.8131 17.7951 2.417 16.7541 2.41699 14.79V10.79C2.41699 9.3841 2.74124 8.36437 3.3291 7.67285C3.9124 6.98674 4.80614 6.56364 6.0752 6.45508L6.08398 6.4541L6.0918 6.45312C6.30852 6.42604 6.53991 6.41699 6.79004 6.41699ZM6.5 11.583C5.71988 11.583 5.08301 12.2199 5.08301 13C5.08301 13.7774 5.70717 14.417 6.5 14.417C7.28012 14.417 7.91699 13.7801 7.91699 13C7.91699 12.2199 7.28012 11.583 6.5 11.583ZM9.99023 11.583C9.21012 11.583 8.57324 12.2199 8.57324 13C8.57324 13.7774 9.1974 14.417 9.99023 14.417C10.783 14.4169 11.4062 13.7773 11.4062 13C11.4062 12.22 10.7702 11.5831 9.99023 11.583ZM13.4902 11.583C12.7101 11.583 12.0732 12.2199 12.0732 13C12.0732 13.7774 12.6974 14.417 13.4902 14.417C14.2702 14.4169 14.9062 13.78 14.9062 13C14.9062 12.22 14.2702 11.5831 13.4902 11.583Z" fill="#40878E" stroke="#40878E" stroke-width="0.833333"/>
<path d="M21.9802 6.79V10.79C21.9802 12.79 21.3602 14.15 20.1202 14.9C19.8202 15.08 19.4702 14.84 19.4702 14.49L19.4802 10.79C19.4802 6.79 17.1902 4.5 13.1902 4.5L7.10025 4.51C6.75025 4.51 6.51025 4.16 6.69025 3.86C7.44025 2.62 8.80025 2 10.7902 2H17.1902C20.3802 2 21.9802 3.6 21.9802 6.79Z" fill="#40878E"/>
</svg>
