<svg width="32" height="32" viewBox="0 0 32 32" fill="none" xmlns="http://www.w3.org/2000/svg">
<rect x="0.5" y="0.5" width="31" height="31" rx="15.5" fill="#40878E" fill-opacity="0.05"/>
<rect x="0.5" y="0.5" width="31" height="31" rx="15.5" stroke="#40878E"/>
<path d="M16.0201 6.91016C12.7101 6.91016 10.0201 9.60016 10.0201 12.9102V15.8002C10.0201 16.4102 9.76009 17.3402 9.45009 17.8602L8.30009 19.7702C7.59009 20.9502 8.08009 22.2602 9.38009 22.7002C13.6901 24.1402 18.3401 24.1402 22.6501 22.7002C23.8601 22.3002 24.3901 20.8702 23.7301 19.7702L22.5801 17.8602C22.2801 17.3402 22.0201 16.4102 22.0201 15.8002V12.9102C22.0201 9.61016 19.3201 6.91016 16.0201 6.91016Z" stroke="#40878E" stroke-width="1.5" stroke-miterlimit="10" stroke-linecap="round"/>
<path d="M17.8699 7.20043C17.5599 7.11043 17.2399 7.04043 16.9099 7.00043C15.9499 6.88043 15.0299 6.95043 14.1699 7.20043C14.4599 6.46043 15.1799 5.94043 16.0199 5.94043C16.8599 5.94043 17.5799 6.46043 17.8699 7.20043Z" stroke="#40878E" stroke-width="1.5" stroke-miterlimit="10" stroke-linecap="round" stroke-linejoin="round"/>
<path d="M19.02 23.0596C19.02 24.7096 17.67 26.0596 16.02 26.0596C15.2 26.0596 14.44 25.7196 13.9 25.1796C13.36 24.6396 13.02 23.8796 13.02 23.0596" stroke="#40878E" stroke-width="1.5" stroke-miterlimit="10"/>
</svg>
