<svg width="12" height="12" viewBox="0 0 12 12" fill="none" xmlns="http://www.w3.org/2000/svg">
<path d="M9.75 8.81445H8.90625C8.80275 8.81445 8.71875 8.73064 8.71875 8.62695C8.71875 8.52327 8.80275 8.43945 8.90625 8.43945H9.75C9.8535 8.43945 9.9375 8.52327 9.9375 8.62695C9.9375 8.73064 9.8535 8.81445 9.75 8.81445Z" fill="white"/>
<path d="M8.625 8.5332C8.5215 8.5332 8.4375 8.44939 8.4375 8.3457V7.50195C8.4375 7.39827 8.5215 7.31445 8.625 7.31445C8.7285 7.31445 8.8125 7.39827 8.8125 7.50195V8.3457C8.8125 8.4492 8.7285 8.5332 8.625 8.5332Z" fill="white"/>
<path d="M8.625 9.08709C8.35781 9.08709 8.15625 8.88947 8.15625 8.62753C8.15625 8.36559 8.35781 8.16797 8.625 8.16797C8.89219 8.16797 9.09375 8.36559 9.09375 8.62753C9.09375 8.88947 8.89219 9.08709 8.625 9.08709ZM8.625 8.54297C8.58225 8.54297 8.53125 8.55759 8.53125 8.62753C8.53125 8.69747 8.58225 8.71209 8.625 8.71209C8.66775 8.71209 8.71875 8.69747 8.71875 8.62753C8.71875 8.55759 8.66775 8.54297 8.625 8.54297Z" fill="white"/>
<path d="M6.35156 7.50195H4.125C4.0215 7.50195 3.9375 7.41814 3.9375 7.31445C3.9375 7.21077 4.0215 7.12695 4.125 7.12695H6.35156C6.45506 7.12695 6.53906 7.21077 6.53906 7.31445C6.53906 7.41814 6.45525 7.50195 6.35156 7.50195Z" fill="white"/>
<path d="M2.56743 7.87706C2.52168 7.87706 2.47611 7.86056 2.43993 7.827C2.36399 7.75669 2.35949 7.638 2.4298 7.56206L3.12486 6.81206C3.19536 6.73594 3.31386 6.73163 3.3898 6.80194C3.46574 6.87225 3.47024 6.99094 3.39993 7.06688L2.70486 7.81688C2.66793 7.85681 2.61768 7.87706 2.56743 7.87706Z" fill="white"/>
<path d="M2.5677 7.87728C2.5107 7.87728 2.45445 7.8514 2.41751 7.80228L2.10007 7.3789C2.03782 7.29622 2.0547 7.17865 2.13757 7.11659C2.22063 7.05453 2.33801 7.07122 2.40007 7.15409L2.71751 7.57728C2.77976 7.65997 2.76288 7.77753 2.68001 7.83959C2.64626 7.8649 2.6067 7.87728 2.5677 7.87728Z" fill="white"/>
<path d="M2.56762 6.37736C2.51062 6.37736 2.45437 6.35148 2.41743 6.30236L2.09999 5.87898C2.03793 5.79611 2.05462 5.67854 2.13749 5.61648C2.22074 5.55442 2.33793 5.57148 2.39999 5.65398L2.71743 6.07736C2.77949 6.16023 2.7628 6.27779 2.67993 6.33986C2.64618 6.36498 2.60662 6.37736 2.56762 6.37736Z" fill="white"/>
<path d="M2.56743 6.37706C2.52168 6.37706 2.47611 6.36056 2.43993 6.32699C2.36399 6.25668 2.35949 6.13799 2.4298 6.06206L3.12486 5.31206C3.19536 5.23574 3.31386 5.23181 3.3898 5.30193C3.46574 5.37224 3.47024 5.49093 3.39993 5.56687L2.70486 6.31687C2.66793 6.35681 2.61768 6.37706 2.56743 6.37706Z" fill="white"/>
<path d="M2.5677 4.87749C2.5107 4.87749 2.45445 4.85162 2.41751 4.80249L2.10007 4.37912C2.03782 4.29624 2.0547 4.17868 2.13757 4.11662C2.22082 4.05437 2.33801 4.07143 2.40007 4.15412L2.71751 4.5773C2.77976 4.66018 2.76288 4.77774 2.68001 4.83981C2.64626 4.86531 2.6067 4.87749 2.5677 4.87749Z" fill="white"/>
<path d="M2.56743 4.87706C2.52168 4.87706 2.47611 4.86056 2.43993 4.827C2.36399 4.75669 2.35949 4.638 2.4298 4.56206L3.12486 3.81206C3.19536 3.73594 3.31386 3.73163 3.3898 3.80194C3.46574 3.87225 3.47024 3.99094 3.39993 4.06688L2.70486 4.81688C2.66793 4.85681 2.61768 4.87706 2.56743 4.87706Z" fill="white"/>
<path d="M7.5 6.00195H4.125C4.0215 6.00195 3.9375 5.91795 3.9375 5.81445C3.9375 5.71095 4.0215 5.62695 4.125 5.62695H7.5C7.6035 5.62695 7.6875 5.71095 7.6875 5.81445C7.6875 5.91795 7.6035 6.00195 7.5 6.00195Z" fill="white"/>
<path d="M7.5 4.50195H4.125C4.0215 4.50195 3.9375 4.41795 3.9375 4.31445C3.9375 4.21095 4.0215 4.12695 4.125 4.12695H7.5C7.6035 4.12695 7.6875 4.21095 7.6875 4.31445C7.6875 4.41795 7.6035 4.50195 7.5 4.50195Z" fill="white"/>
<path d="M5.625 2.81445H2.625C2.5215 2.81445 2.4375 2.73045 2.4375 2.62695C2.4375 2.52345 2.5215 2.43945 2.625 2.43945H5.625C5.7285 2.43945 5.8125 2.52345 5.8125 2.62695C5.8125 2.73045 5.7285 2.81445 5.625 2.81445Z" fill="white"/>
<path d="M8.625 6.18945C8.5215 6.18945 8.4375 6.10545 8.4375 6.00195V3.37695C8.4375 3.27345 8.5215 3.18945 8.625 3.18945C8.7285 3.18945 8.8125 3.27345 8.8125 3.37695V6.00195C8.8125 6.10545 8.7285 6.18945 8.625 6.18945Z" fill="white"/>
<path d="M7.125 9.93945H2.25C2.1465 9.93945 2.0625 9.85564 2.0625 9.75195C2.0625 9.64827 2.1465 9.56445 2.25 9.56445H7.125C7.2285 9.56445 7.3125 9.64827 7.3125 9.75195C7.3125 9.85564 7.2285 9.93945 7.125 9.93945Z" fill="white"/>
<path d="M6.75 1.68945H2.25C2.1465 1.68945 2.0625 1.60545 2.0625 1.50195C2.0625 1.39845 2.1465 1.31445 2.25 1.31445H6.75C6.8535 1.31445 6.9375 1.39845 6.9375 1.50195C6.9375 1.60545 6.8535 1.68945 6.75 1.68945Z" fill="white"/>
<path d="M8.62505 3.5645C8.57705 3.5645 8.52905 3.54612 8.49248 3.50956L6.61748 1.63456C6.54417 1.56125 6.54417 1.44275 6.61748 1.36944C6.6908 1.29613 6.8093 1.29613 6.88261 1.36944L8.75761 3.24444C8.83092 3.31775 8.83092 3.43625 8.75761 3.50956C8.72105 3.54612 8.67305 3.5645 8.62505 3.5645Z" fill="white"/>
<path d="M7.5 3.56445C6.98306 3.56445 6.5625 3.14389 6.5625 2.62695C6.5625 2.52345 6.6465 2.43945 6.75 2.43945C6.8535 2.43945 6.9375 2.52345 6.9375 2.62695C6.9375 2.93708 7.18988 3.18945 7.5 3.18945C7.6035 3.18945 7.6875 3.27345 7.6875 3.37695C7.6875 3.48045 7.6035 3.56445 7.5 3.56445Z" fill="white"/>
<path d="M8.625 3.56445H7.5C7.3965 3.56445 7.3125 3.48045 7.3125 3.37695C7.3125 3.27345 7.3965 3.18945 7.5 3.18945H8.625C8.7285 3.18945 8.8125 3.27345 8.8125 3.37695C8.8125 3.48045 8.7285 3.56445 8.625 3.56445Z" fill="white"/>
<path d="M6.75 2.81445C6.6465 2.81445 6.5625 2.73045 6.5625 2.62695V1.50195C6.5625 1.39845 6.6465 1.31445 6.75 1.31445C6.8535 1.31445 6.9375 1.39845 6.9375 1.50195V2.62695C6.9375 2.73045 6.8535 2.81445 6.75 2.81445Z" fill="white"/>
<path d="M1.5 2.43945C1.3965 2.43945 1.3125 2.35545 1.3125 2.25195C1.3125 1.73502 1.73306 1.31445 2.25 1.31445C2.3535 1.31445 2.4375 1.39845 2.4375 1.50195C2.4375 1.60545 2.3535 1.68945 2.25 1.68945C1.93988 1.68945 1.6875 1.94183 1.6875 2.25195C1.6875 2.35545 1.6035 2.43945 1.5 2.43945Z" fill="white"/>
<path d="M1.5 9.18945C1.3965 9.18945 1.3125 9.10564 1.3125 9.00195V2.25195C1.3125 2.14845 1.3965 2.06445 1.5 2.06445C1.6035 2.06445 1.6875 2.14845 1.6875 2.25195V9.00195C1.6875 9.10545 1.6035 9.18945 1.5 9.18945Z" fill="white"/>
<path d="M2.25 9.93945C1.73306 9.93945 1.3125 9.51889 1.3125 9.00195C1.3125 8.89827 1.3965 8.81445 1.5 8.81445C1.6035 8.81445 1.6875 8.89827 1.6875 9.00195C1.6875 9.31208 1.93988 9.56445 2.25 9.56445C2.3535 9.56445 2.4375 9.64827 2.4375 9.75195C2.4375 9.85564 2.3535 9.93945 2.25 9.93945Z" fill="white"/>
<path d="M8.62824 10.6856C8.1218 10.6856 7.63749 10.505 7.26455 10.1775C6.55543 9.55497 6.36024 8.49822 6.80049 7.66534C7.15318 6.99766 7.87355 6.56641 8.63555 6.56641C8.80205 6.56641 8.96799 6.58666 9.12868 6.62716C10.0319 6.85384 10.6876 7.69516 10.6876 8.62759C10.6876 9.29509 10.3622 9.92416 9.81699 10.311C9.47143 10.556 9.06024 10.6856 8.62824 10.6856ZM8.63555 6.94141C8.0108 6.94141 7.42074 7.29428 7.13199 7.84047C6.77199 8.52203 6.93174 9.38641 7.51186 9.89603C7.81636 10.1634 8.21274 10.3108 8.62824 10.3108C8.98224 10.3108 9.31824 10.2052 9.60005 10.0052C10.0461 9.68866 10.3126 9.17359 10.3126 8.62759C10.3126 7.86466 9.7763 7.17634 9.03736 6.99091C8.90649 6.95791 8.7713 6.94141 8.63555 6.94141Z" fill="white"/>
</svg>
