<svg width="195" height="35" viewBox="0 0 195 35" fill="none" xmlns="http://www.w3.org/2000/svg">
<path d="M30.1225 23.3393C26.8619 29.1526 20.2032 33.2744 13.9747 33.3906C8.41625 33.5974 3.93275 30.8441 1.69653 26.6061C1.84707 26.8477 2.00313 27.0847 2.17264 27.3124C9.3728 36.6969 26.052 30.3306 29.009 17.4609H25.9886C25.7418 19.0409 25.1848 20.6394 24.3373 22.1427C22.6314 25.1934 19.7419 27.7585 16.5042 29.1154C11.4642 31.2925 5.83313 30.3074 2.81046 26.7804C2.23105 26.1275 1.74829 25.3956 1.35815 24.6056C1.46226 24.7752 1.56961 24.9401 1.68715 25.1005C7.28382 32.5263 20.3527 27.5447 22.7519 17.4609H19.7314C19.5642 18.632 19.1662 19.8192 18.5503 20.9438C17.3029 23.2371 15.1595 25.1795 12.7378 26.2227C8.93499 27.9165 4.6535 27.2079 2.32497 24.5684C1.68955 23.869 1.19376 23.0489 0.850389 22.1497H0C0.343092 27.0545 3.05782 31.3529 7.36958 33.3999C17.9098 38.5348 32.5318 30.0216 35.2662 17.461H32.2456C31.919 19.4522 31.2011 21.4596 30.1225 23.3393Z" fill="white"/>
<path d="M27.8966 1.52019C17.3563 -3.61468 2.73428 4.89848 0 17.4591H3.02048C3.34712 15.4679 4.06499 13.4605 5.14364 11.5808C8.40426 5.76748 15.0629 1.64565 21.2915 1.52946C26.8499 1.32267 31.3334 4.07599 33.5696 8.31398C33.4191 8.07234 33.263 7.83534 33.0935 7.60765C25.8933 -1.77682 9.21412 4.58948 6.25711 17.4591H9.27759C9.52432 15.8792 10.0813 14.2806 10.9288 12.7774C12.6348 9.72666 15.5242 7.16157 18.762 5.80466C23.8019 3.62755 29.433 4.61271 32.4557 8.13973C33.0351 8.79263 33.5178 9.5245 33.908 10.3145C33.8039 10.1449 33.6965 9.97993 33.579 9.8196C27.9823 2.39381 14.9134 7.37532 12.5142 17.4591H15.5347C15.7019 16.2881 16.1 15.1008 16.7159 13.9763C17.9632 11.683 20.1066 9.7406 22.5283 8.69736C26.3311 7.00355 30.6126 7.71221 32.9412 10.3517C33.5766 11.051 34.0724 11.8712 34.4157 12.7704H35.2661C34.923 7.86557 32.2083 3.56716 27.8966 1.52019Z" fill="white"/>
<path d="M52.7502 16.2722L50.0102 15.1325C48.8461 14.6232 48.3853 14.1139 48.3853 13.4593C48.3853 12.6104 49.1857 12.0285 50.3254 12.0285C51.3438 12.0285 52.5806 12.4893 53.7446 13.5805L55.9754 11.1313C54.4721 9.6035 52.5079 8.73047 50.3254 8.73047C47.0757 8.73047 44.7963 10.7191 44.7963 13.5805C44.7963 15.6174 45.936 17.1937 48.2642 18.1638L50.9072 19.3035C52.0471 19.7885 52.6049 20.3219 52.6049 21.0979C52.6049 22.1164 51.659 22.8198 50.3254 22.8198C49.0158 22.8198 47.8276 22.1406 46.4696 20.71L43.9961 23.135C45.8877 25.2446 48.046 26.1905 50.3254 26.1905C53.793 26.1905 56.1938 24.0807 56.1938 21.0252C56.1938 19.0366 55.1753 17.3149 52.7502 16.2722Z" fill="white"/>
<path d="M73.4115 19.594L70.065 9.57895H67.2762L63.9784 19.5455L61.0683 8.97266H57.4307L62.6203 25.9475H64.8754L68.6827 14.9866L72.5142 25.9475H74.7453L79.9104 8.97266H76.3215L73.4115 19.594Z" fill="white"/>
<path d="M87.0163 8.82715L79.9595 25.9476H83.6456L85.3188 21.6553H92.4482L94.1214 25.9476H97.8559L90.7751 8.82715H87.0163ZM86.604 18.3573L88.8835 12.4889L91.163 18.3573H86.604Z" fill="white"/>
<path d="M112.601 19.7881L103.216 8.97266H100.524V25.9475H103.968V15.0836L113.401 25.9475H116.02V8.97266H112.577L112.601 19.7881Z" fill="white"/>
<path d="M132.462 19.7881L123.077 8.97266H120.386V25.9475H123.829V15.0836L133.262 25.9475H135.882V8.97266H132.438L132.462 19.7881Z" fill="white"/>
<path d="M153.608 8.82715L146.551 25.9476H150.237L151.911 21.6553H159.04L160.713 25.9476H164.448L157.367 8.82715H153.608ZM153.196 18.3573L155.475 12.4889L157.755 18.3573H153.196Z" fill="white"/>
<path d="M172.84 21.3401L167.99 8.97266H164.11L171.118 25.9475H174.537L181.473 8.97266H177.69L172.84 21.3401Z" fill="white"/>
<path d="M194.35 12.3434V8.97266H184.141V25.9475H194.35V22.5768H187.584V18.7695H194.18V15.3988H187.584V12.3434H194.35Z" fill="white"/>
</svg>
