<svg width="30" height="30" viewBox="0 0 30 30" fill="none" xmlns="http://www.w3.org/2000/svg">
<path d="M10 2.5V6.25" stroke="white" stroke-width="1.875" stroke-miterlimit="10" stroke-linecap="round" stroke-linejoin="round"/>
<path d="M20 2.5V6.25" stroke="white" stroke-width="1.875" stroke-miterlimit="10" stroke-linecap="round" stroke-linejoin="round"/>
<path d="M4.375 11.3625H25.625" stroke="white" stroke-width="1.875" stroke-miterlimit="10" stroke-linecap="round" stroke-linejoin="round"/>
<path d="M22.5 28.75C25.2614 28.75 27.5 26.5114 27.5 23.75C27.5 20.9886 25.2614 18.75 22.5 18.75C19.7386 18.75 17.5 20.9886 17.5 23.75C17.5 26.5114 19.7386 28.75 22.5 28.75Z" stroke="white" stroke-width="1.875" stroke-miterlimit="10" stroke-linecap="round" stroke-linejoin="round"/>
<path d="M24.3627 23.8125H20.6377" stroke="white" stroke-width="1.875" stroke-miterlimit="10" stroke-linecap="round" stroke-linejoin="round"/>
<path d="M22.5 21.9875V25.725" stroke="white" stroke-width="1.875" stroke-miterlimit="10" stroke-linecap="round" stroke-linejoin="round"/>
<path d="M26.25 10.625V20.45C25.3375 19.4125 24 18.75 22.5 18.75C19.7375 18.75 17.5 20.9875 17.5 23.75C17.5 24.6875 17.7625 25.575 18.225 26.325C18.4875 26.775 18.825 27.175 19.2125 27.5H10C5.625 27.5 3.75 25 3.75 21.25V10.625C3.75 6.875 5.625 4.375 10 4.375H20C24.375 4.375 26.25 6.875 26.25 10.625Z" stroke="white" stroke-width="1.875" stroke-miterlimit="10" stroke-linecap="round" stroke-linejoin="round"/>
<path d="M14.9941 17.125H15.0053" stroke="white" stroke-width="2.5" stroke-linecap="round" stroke-linejoin="round"/>
<path d="M10.3681 17.125H10.3794" stroke="white" stroke-width="2.5" stroke-linecap="round" stroke-linejoin="round"/>
<path d="M10.3681 20.875H10.3794" stroke="white" stroke-width="2.5" stroke-linecap="round" stroke-linejoin="round"/>
</svg>
