<svg width="12" height="12" viewBox="0 0 12 12" fill="none" xmlns="http://www.w3.org/2000/svg">
<g clip-path="url(#clip0_3273_35287)">
<path d="M11.0323 12H0.967742C0.434129 12 0 11.5659 0 11.0323V0.967742C0 0.434129 0.434129 0 0.967742 0H11.0323C11.5659 0 12 0.434129 12 0.967742V11.0323C12 11.5659 11.5659 12 11.0323 12ZM0.967742 0.387097C0.647613 0.387097 0.387097 0.647613 0.387097 0.967742V11.0323C0.387097 11.3524 0.647613 11.6129 0.967742 11.6129H11.0323C11.3524 11.6129 11.6129 11.3524 11.6129 11.0323V0.967742C11.6129 0.647613 11.3524 0.387097 11.0323 0.387097H0.967742Z" fill="white"/>
<path d="M4.86623 5.0785H1.54706C1.44023 5.0785 1.35352 4.99179 1.35352 4.88495C1.35352 4.77812 1.44023 4.69141 1.54706 4.69141H4.86603C4.97287 4.69141 5.05958 4.77812 5.05958 4.88495C5.05958 4.99179 4.97306 5.0785 4.86623 5.0785Z" fill="white"/>
<path d="M5.76003 6.8451H1.54706C1.44023 6.8451 1.35352 6.75839 1.35352 6.65156C1.35352 6.54472 1.44023 6.45801 1.54706 6.45801H5.76003C5.86687 6.45801 5.95358 6.54472 5.95358 6.65156C5.95358 6.75839 5.86706 6.8451 5.76003 6.8451Z" fill="white"/>
<path d="M7.77158 8.61171H1.54706C1.44023 8.61171 1.35352 8.525 1.35352 8.41816C1.35352 8.31132 1.44023 8.22461 1.54706 8.22461H7.77158C7.87842 8.22461 7.96513 8.31132 7.96513 8.41816C7.96513 8.525 7.87842 8.61171 7.77158 8.61171Z" fill="white"/>
<path d="M10.4534 10.3773H1.54706C1.44023 10.3773 1.35352 10.2906 1.35352 10.1838C1.35352 10.0769 1.44023 9.99023 1.54706 9.99023H10.4534C10.5602 9.99023 10.6469 10.0769 10.6469 10.1838C10.6469 10.2906 10.5602 10.3773 10.4534 10.3773Z" fill="white"/>
<path d="M1.6221 1.63672C1.48197 1.63672 1.34881 1.64717 1.22649 1.66749L1.18604 1.67427V3.30975H1.48468V2.69194C1.52223 2.6962 1.56113 2.69698 1.59887 2.69698C1.81662 2.69698 1.99894 2.63059 2.11178 2.5104C2.20081 2.41865 2.24591 2.29478 2.24591 2.14246C2.24591 1.99343 2.19133 1.86433 2.093 1.77917C1.98791 1.68472 1.82958 1.63672 1.6221 1.63672ZM1.94745 2.15175C1.94745 2.40046 1.73184 2.43762 1.60352 2.43762C1.5561 2.43762 1.517 2.43511 1.48487 2.43027V1.90169C1.5172 1.89723 1.565 1.89375 1.62655 1.89375C1.77287 1.89375 1.94745 1.93846 1.94745 2.15175Z" fill="white"/>
<path d="M3.58957 2.82104C3.55725 2.67936 3.49919 2.57736 3.41654 2.51659C3.56809 2.43375 3.65577 2.28723 3.65577 2.10994C3.65577 1.97427 3.60622 1.85582 3.5168 1.77704C3.40977 1.68007 3.26015 1.63672 3.03177 1.63672C2.88544 1.63672 2.73699 1.64911 2.63441 1.6702L2.5957 1.67814V3.30975H2.89435V2.63194H3.03448C3.19532 2.63794 3.26035 2.70259 3.30254 2.89827C3.35441 3.1282 3.38635 3.24046 3.41228 3.28556L3.42622 3.30975H3.74403L3.7057 3.23833C3.6759 3.18259 3.63719 3.0233 3.58957 2.82104ZM3.35732 2.13317C3.35732 2.28646 3.24061 2.38188 3.05286 2.38188H2.89474V1.89859C2.92899 1.89336 2.98028 1.88911 3.04551 1.88911C3.25222 1.89123 3.35732 1.9733 3.35732 2.13317Z" fill="white"/>
<path d="M4.70856 1.62207C4.25237 1.62207 3.93359 1.97994 3.93359 2.49226C3.93359 2.98813 4.24288 3.33459 4.68553 3.33459C5.07127 3.33459 5.4605 3.06478 5.4605 2.46207C5.4605 1.95962 5.15837 1.62207 4.70856 1.62207ZM5.15005 2.47136C5.15005 2.77078 5.00992 3.07291 4.69695 3.07291C4.38727 3.07291 4.24637 2.76962 4.24637 2.48762C4.24637 2.18704 4.3865 1.88375 4.69927 1.88375C5.00895 1.88375 5.15005 2.18839 5.15005 2.47136Z" fill="white"/>
<path d="M6.12118 2.72649C6.12118 3.03985 6.00796 3.06578 5.88196 3.06578C5.82951 3.06578 5.77396 3.05591 5.73002 3.03888L5.67544 3.01759L5.62744 3.27869L5.66383 3.29359C5.72267 3.31759 5.81886 3.33424 5.89802 3.33424C6.24428 3.33424 6.41983 3.13527 6.41983 2.74275V1.64746H6.12099L6.12118 2.72649Z" fill="white"/>
<path d="M7.13292 2.57631H7.74125V2.31231H7.13292V1.91476H7.77609V1.64844H6.83447V3.30986H7.81073V3.04353H7.13292V2.57631Z" fill="white"/>
<path d="M8.9313 1.88839C9.04143 1.88839 9.14595 1.90968 9.22569 1.94859L9.27717 1.97355L9.35343 1.71575L9.31801 1.69717C9.28434 1.67955 9.1564 1.62207 8.92414 1.62207C8.41453 1.62207 8.05859 1.97994 8.05859 2.49226C8.05859 3.00246 8.38105 3.33226 8.88001 3.33226C9.08363 3.33226 9.23808 3.29123 9.31492 3.25291L9.34995 3.2353L9.28337 2.9802L9.23034 3.00594C9.15369 3.0431 9.03563 3.06613 8.92182 3.06613C8.57556 3.06613 8.36905 2.84897 8.36905 2.48549C8.36905 2.11155 8.57924 1.88839 8.9313 1.88839Z" fill="white"/>
<path d="M9.55908 1.64746V1.91591H10.035V3.30888H10.3358V1.91591H10.814V1.64746H9.55908Z" fill="white"/>
</g>
<defs>
<clipPath id="clip0_3273_35287">
<rect width="12" height="12" fill="white"/>
</clipPath>
</defs>
</svg>
