<svg width="20" height="20" viewBox="0 0 20 20" fill="none" xmlns="http://www.w3.org/2000/svg">
<g clip-path="url(#clip0_2448_29660)">
<path d="M10.0037 18.3277C14.6052 18.3277 18.3355 14.5974 18.3355 9.99587C18.3355 5.39434 14.6052 1.66406 10.0037 1.66406C5.40215 1.66406 1.67188 5.39434 1.67188 9.99587C1.67188 14.5974 5.40215 18.3277 10.0037 18.3277Z" stroke="#3A3A6A" stroke-width="1.66636" stroke-linecap="round" stroke-linejoin="round"/>
<path d="M9.99908 14.9982C12.76 14.9982 14.9982 12.76 14.9982 9.99908C14.9982 7.23817 12.76 5 9.99908 5C7.23817 5 5 7.23817 5 9.99908C5 12.76 7.23817 14.9982 9.99908 14.9982Z" stroke="#3A3A6A" stroke-width="1.66636" stroke-linecap="round" stroke-linejoin="round"/>
<path d="M9.99449 11.6648C10.9148 11.6648 11.6608 10.9187 11.6608 9.99839C11.6608 9.07809 10.9148 8.33203 9.99449 8.33203C9.07418 8.33203 8.32812 9.07809 8.32812 9.99839C8.32812 10.9187 9.07418 11.6648 9.99449 11.6648Z" stroke="#3A3A6A" stroke-width="1.66636" stroke-linecap="round" stroke-linejoin="round"/>
</g>
<defs>
<clipPath id="clip0_2448_29660">
<rect width="19.9963" height="19.9963" fill="white"/>
</clipPath>
</defs>
</svg>
