<svg width="31" height="30" viewBox="0 0 31 30" fill="none" xmlns="http://www.w3.org/2000/svg">
<path d="M25.8834 20.0501C23.0816 25.0444 17.3601 28.5855 12.0081 28.6853C7.23185 28.8629 3.3793 26.4975 1.45778 22.8567C1.58714 23.0642 1.72124 23.2679 1.86689 23.4635C8.05379 31.5257 22.3858 26.0564 24.9267 15H22.3312C22.1192 16.3573 21.6406 17.7307 20.9124 19.0221C19.4465 21.643 16.9637 23.8467 14.1816 25.0124C9.85089 26.8828 5.01225 26.0364 2.41495 23.0064C1.91708 22.4455 1.50226 21.8167 1.16702 21.138C1.25648 21.2837 1.34872 21.4254 1.44972 21.5632C6.25878 27.9427 17.4885 23.6631 19.5501 15H16.9547C16.811 16.006 16.469 17.026 15.9397 17.9922C14.8679 19.9623 13.0261 21.6311 10.9452 22.5273C7.67759 23.9825 3.99862 23.3736 1.99778 21.1061C1.45178 20.5053 1.02576 19.8006 0.730716 19.0281H0C0.294809 23.2419 2.6275 26.9347 6.33247 28.6933C15.3894 33.1047 27.9537 25.7909 30.3032 15H27.7078C27.4271 16.7107 26.8103 18.4353 25.8834 20.0501Z" fill="#19305A"/>
<path d="M23.9707 1.30601C14.9138 -3.1054 2.34949 4.20832 0 14.9992H2.59541C2.87608 13.2886 3.49293 11.564 4.41979 9.94911C7.22155 4.95488 12.9431 1.41379 18.2952 1.31397C23.0714 1.13632 26.9239 3.50171 28.8454 7.14259C28.7161 6.935 28.582 6.73139 28.4363 6.53578C22.2494 -1.52648 7.91744 3.94285 5.37656 14.9992H7.97197C8.18398 13.6419 8.66259 12.2686 9.39085 10.9771C10.8567 8.35623 13.3395 6.15255 16.1216 4.98682C20.4523 3.11645 25.291 3.96281 27.8883 6.99289C28.3861 7.55381 28.8009 8.18256 29.1362 8.86124C29.0467 8.71553 28.9545 8.57382 28.8535 8.43608C24.0444 2.05654 12.8147 6.33618 10.7531 14.9992H13.3485C13.4922 13.9932 13.8342 12.9732 14.3635 12.0071C15.4353 10.037 17.2771 8.36821 19.358 7.47196C22.6256 6.01679 26.3046 6.62561 28.3054 8.8932C28.8514 9.49403 29.2775 10.1986 29.5725 10.9711H30.3032C30.0084 6.75736 27.6757 3.06457 23.9707 1.30601Z" fill="#19305A"/>
</svg>
